<svg version="1.1" id="Layer_1" xmlns="http://www.w3.org/2000/svg" xmlns:xlink="http://www.w3.org/1999/xlink" x="0px" y="0px"
	 width="100%" viewBox="0 0 597 128" enable-background="new 0 0 597 128" xml:space="preserve">
<path fill="#F6F6F6" opacity="1.000000" stroke="none" 
	d="
M436.000000,129.000000 
	C290.716583,129.000000 145.933197,129.000000 1.074898,129.000000 
	C1.074898,86.398087 1.074898,43.796005 1.074898,1.096962 
	C199.999969,1.096962 398.999969,1.096962 597.972046,1.096962 
	C597.972046,43.733398 597.972046,86.366714 597.972046,129.000000 
	C544.129333,129.000000 490.314667,129.000000 436.000000,129.000000 
M69.404861,26.064205 
	C59.008049,26.064205 48.611240,26.064205 38.308266,26.064205 
	C38.308266,37.064598 38.308266,47.462502 38.308266,57.813469 
	C49.141933,57.813469 59.690376,57.813469 70.243973,57.813469 
	C70.243973,47.181831 70.243973,36.886326 69.404861,26.064205 
M110.424004,84.496193 
	C110.424004,78.409058 110.424004,72.321915 110.424004,66.171852 
	C99.343323,66.171852 88.819595,66.171852 78.284149,66.171852 
	C78.284149,76.881645 78.284149,87.269768 78.284149,97.716454 
	C89.098663,97.716454 99.653397,97.716454 110.424072,97.716454 
	C110.424072,93.455078 110.424072,89.475121 110.424004,84.496193 
M244.802017,70.538666 
	C248.940201,79.437096 249.185196,79.579498 257.150970,77.381851 
	C255.373795,73.793098 253.627991,70.267715 251.814819,66.606308 
	C252.724243,65.795456 253.645462,65.094437 254.424164,64.260391 
	C259.681458,58.629410 257.281891,48.053665 249.819748,46.394104 
	C243.816650,45.059032 237.440109,45.403126 231.110931,44.994530 
	C231.110931,56.697796 231.110931,67.290657 231.110931,77.932533 
	C233.801285,77.932533 236.189011,77.932533 239.004364,77.932533 
	C239.004364,74.472099 239.004364,71.370628 239.004364,67.043930 
	C241.356186,68.267494 242.871979,69.056091 244.802017,70.538666 
M407.044189,66.468849 
	C407.044189,70.245087 407.044189,74.021324 407.044189,78.009384 
	C410.145569,78.009384 412.690887,78.009384 415.966339,78.009384 
	C415.966339,73.141129 415.966339,68.649544 415.966339,64.157951 
	C416.417023,64.035599 416.867676,63.913254 417.318359,63.790905 
	C419.173828,66.791618 421.082733,69.760834 422.873688,72.799576 
	C426.657959,79.220520 427.791107,79.688301 435.420105,77.453468 
	C431.450348,70.895355 427.524719,64.410049 423.650604,58.009941 
	C427.356110,53.820320 430.768921,49.961620 434.181732,46.102924 
	C433.913544,45.606678 433.645386,45.110435 433.377197,44.614193 
	C430.171539,45.384666 426.540802,45.467823 423.877350,47.115032 
	C421.102570,48.831059 419.260986,52.056019 417.011383,54.621235 
	C415.721039,52.209923 415.470642,50.746033 415.620270,49.324257 
	C415.982605,45.882301 414.319336,45.171787 411.213623,45.159622 
	C407.934326,45.146770 406.838104,46.253216 406.981171,49.519402 
	C407.213806,54.830219 407.044159,60.158657 407.044189,66.468849 
M389.635162,51.767635 
	C392.894775,52.779957 396.154358,53.792278 399.452515,54.816570 
	C402.649536,48.495090 402.462097,47.641201 395.578674,45.814999 
	C392.452637,44.985645 388.965332,44.806149 385.747589,45.198471 
	C380.728180,45.810455 377.392456,49.578072 377.035431,54.101822 
	C376.649719,58.988297 379.345306,61.873505 383.526306,63.638287 
	C385.513184,64.476952 387.720673,64.855598 389.598541,65.868507 
	C390.892914,66.566689 391.793060,67.995682 392.869415,69.098061 
	C391.377686,69.817139 389.641266,71.423134 388.439392,71.091568 
	C384.597229,70.031609 380.953308,68.253029 377.055420,66.680313 
	C376.766022,69.249687 372.976685,72.183601 377.391113,74.975632 
	C382.515564,78.216759 388.045563,79.655411 394.051270,77.981773 
	C398.677399,76.692589 401.534576,73.699638 401.845520,68.775146 
	C402.150513,63.944546 399.450500,60.994385 395.238220,59.273342 
	C393.089874,58.395588 390.752594,57.955452 388.659760,56.977268 
	C387.618378,56.490517 386.935425,55.236935 386.090363,54.330212 
	C387.002533,53.518890 387.914703,52.707569 389.635162,51.767635 
M493.043121,71.320679 
	C493.841461,62.677086 494.639801,54.033493 495.459015,45.163857 
	C491.625305,45.163857 489.198242,45.163857 486.540680,45.163857 
	C486.432404,46.357014 486.280914,47.318439 486.268280,48.281677 
	C486.194214,53.931480 486.562958,59.632172 485.877625,65.204437 
	C485.637665,67.155075 482.901062,70.111412 481.177429,70.202499 
	C479.406403,70.296089 477.001038,67.750587 475.777618,65.794395 
	C474.847565,64.307320 475.233765,61.935745 475.209534,59.955570 
	C475.149506,55.045719 475.189819,50.134644 475.189819,45.287704 
	C472.025360,45.287704 469.639191,45.287704 466.985626,45.287704 
	C466.985626,51.628815 466.900513,57.596928 467.007538,63.561596 
	C467.136505,70.748703 470.450745,75.791054 476.023865,77.615730 
	C482.243652,79.652138 488.280945,77.615013 493.043121,71.320679 
M200.823837,52.589165 
	C200.823837,60.992985 200.823837,69.396805 200.823837,77.870979 
	C209.272766,77.870979 217.029144,77.870979 225.069305,77.870979 
	C225.069305,75.579254 225.069305,73.498276 225.069305,70.815216 
	C219.594345,70.815216 214.388260,70.815216 208.917450,70.815216 
	C209.077209,68.615524 209.191879,67.036705 209.342819,64.958389 
	C212.923294,64.958389 216.157455,64.958389 219.753006,64.958389 
	C219.628204,62.350864 219.529785,60.294769 219.409271,57.776890 
	C215.627869,57.776890 212.384521,57.776890 208.928207,57.776890 
	C209.064941,55.834000 209.166077,54.396866 209.298141,52.520477 
	C214.625381,52.520477 219.706207,52.520477 225.003479,52.520477 
	C225.003479,49.839722 225.003479,47.622417 225.003479,45.462406 
	C216.899277,45.462406 209.153671,45.462406 200.823608,45.462406 
	C200.823608,47.708981 200.823608,49.662666 200.823837,52.589165 
M332.025085,58.024780 
	C329.088959,58.024780 326.152863,58.024780 323.255920,58.024780 
	C323.255920,55.919094 323.255920,54.484509 323.255920,52.396919 
	C328.685547,52.396919 333.892487,52.396919 339.016388,52.396919 
	C339.016388,49.628227 339.016388,47.533760 339.016388,45.416809 
	C330.912354,45.416809 323.152283,45.416809 315.164612,45.416809 
	C315.164612,56.381027 315.164612,67.078606 315.164612,77.784790 
	C323.260437,77.784790 331.011780,77.784790 338.831909,77.784790 
	C338.831909,75.431633 338.831909,73.381416 338.831909,70.833817 
	C333.415619,70.833817 328.326965,70.833817 322.958313,70.833817 
	C323.074677,68.719414 323.162170,67.129250 323.279785,64.991982 
	C326.818390,64.991982 330.053162,64.991982 334.035767,64.991982 
	C333.570679,62.301559 333.221405,60.281033 332.025085,58.024780 
M369.958160,72.572273 
	C366.946777,67.666077 363.935394,62.759880 360.981232,57.946896 
	C364.713928,53.873245 368.124390,50.151268 371.751648,46.192699 
	C362.214325,42.323338 358.879822,50.544495 352.808472,54.965736 
	C352.808472,51.320904 352.808472,48.463856 352.808472,43.883385 
	C349.367065,45.469612 345.094147,46.435432 345.030457,47.626308 
	C344.492615,57.685932 344.723602,67.786667 344.723602,77.914734 
	C347.744598,77.914734 350.116455,77.914734 353.265350,77.914734 
	C353.265350,73.045067 353.265350,68.537613 353.265350,64.030151 
	C353.733887,63.915035 354.202423,63.799915 354.670990,63.684799 
	C356.549042,66.683144 358.451843,69.666313 360.300018,72.682953 
	C364.247284,79.125725 365.000580,79.438072 372.836090,77.461960 
	C371.966949,76.000854 371.139099,74.609177 369.958160,72.572273 
M513.492798,45.268757 
	C510.996826,45.268551 508.500854,45.260239 506.004913,45.269749 
	C499.931030,45.292889 499.424835,46.067486 501.417633,53.013439 
	C505.124603,53.013439 508.997162,53.013439 513.032227,53.013439 
	C509.570526,62.081223 500.029602,67.408760 499.790741,78.090607 
	C508.491241,78.090607 516.577454,78.090607 524.773193,78.090607 
	C524.773193,75.721397 524.773193,73.510170 524.773193,70.854637 
	C520.237122,70.854637 516.023315,70.854637 511.760895,70.854637 
	C515.307251,61.819801 524.905884,56.352283 525.031067,45.268955 
	C521.068237,45.268955 517.770813,45.268955 513.492798,45.268757 
M264.390106,73.019157 
	C263.855438,74.552429 263.320740,76.085701 262.703430,77.855995 
	C267.597565,78.719604 271.880096,79.331764 273.089844,73.083847 
	C276.478241,73.083847 279.633759,72.970413 282.772308,73.151482 
	C283.740906,73.207375 285.297974,73.878777 285.506805,74.586594 
	C287.265442,80.548180 291.478180,78.007088 295.766449,77.974968 
	C291.714020,67.358704 288.028107,57.268700 283.875458,47.374580 
	C283.358032,46.141769 280.335663,45.354733 278.533234,45.452595 
	C277.007568,45.535431 274.791412,46.868568 274.217651,48.217148 
	C270.842377,56.150509 267.858795,64.250496 264.390106,73.019157 
M554.438232,51.021564 
	C552.415833,44.404339 552.207642,44.296833 544.094482,45.973774 
	C547.162964,55.251011 550.272522,64.471443 553.241516,73.736961 
	C554.155396,76.589256 554.971375,78.583916 558.831055,78.547134 
	C562.497131,78.512192 563.709778,76.988121 564.601074,73.955009 
	C566.004089,69.180244 567.706726,64.493721 569.272095,59.766399 
	C570.807373,55.129978 572.329651,50.489243 573.893921,45.740231 
	C565.677734,44.753887 565.680420,44.754696 563.531799,51.851940 
	C562.270569,56.018154 560.999146,60.181301 559.682129,64.510704 
	C558.897156,63.976959 558.484009,63.853710 558.411499,63.623238 
	C557.168579,59.674400 555.967834,55.712315 554.438232,51.021564 
M149.949753,51.500263 
	C147.621719,44.407391 146.710968,43.924969 139.532486,46.364483 
	C142.880463,56.392941 146.087570,66.482079 149.773346,76.393196 
	C150.205475,77.555161 153.280685,78.232468 155.119034,78.209488 
	C156.493942,78.192291 158.623215,76.985222 159.085175,75.792358 
	C161.482666,69.601524 163.451996,63.244907 165.571869,56.946507 
	C166.812775,53.259552 168.056259,49.573467 169.331711,45.788765 
	C160.968307,44.637394 161.026367,44.654053 158.999405,51.719753 
	C157.725510,56.160404 156.245682,60.541981 154.508224,66.062172 
	C152.824829,60.748894 151.483429,56.515049 149.949753,51.500263 
M45.550644,65.822647 
	C43.122223,65.822647 40.693802,65.822647 38.258881,65.822647 
	C38.258881,76.860458 38.258881,87.264816 38.258881,97.721451 
	C49.062256,97.721451 59.606773,97.721451 70.231514,97.721451 
	C70.231514,86.995262 70.231514,76.571785 70.231514,65.822632 
	C62.156364,65.822632 54.346382,65.822632 45.550644,65.822647 
M110.497833,46.472618 
	C110.497833,39.712898 110.497833,32.953178 110.497833,26.340008 
	C99.261879,26.340008 88.701393,26.340008 78.313828,26.340008 
	C78.313828,37.119732 78.313828,47.535267 78.313828,58.010612 
	C89.080833,58.010612 99.535843,58.010612 110.498146,58.010612 
	C110.498146,54.385906 110.498146,50.923489 110.497833,46.472618 
M461.694092,71.775108 
	C457.556946,71.265869 453.419800,70.756622 448.898315,70.200073 
	C448.898315,61.962566 448.898315,53.893562 448.898315,45.632408 
	C446.099091,45.632408 443.717194,45.632408 440.927490,45.632408 
	C440.927490,51.258892 440.927490,56.540524 440.927490,61.822159 
	C440.927490,67.228767 440.927490,72.635384 440.927490,78.292046 
	C446.639496,78.292046 451.634979,77.968132 456.567749,78.385612 
	C461.247284,78.781677 462.523132,76.838989 461.694092,71.775108 
M195.497009,72.832031 
	C194.227478,72.163780 193.005219,71.062431 191.678558,70.917618 
	C188.933517,70.617966 186.132950,70.827271 182.780334,70.827271 
	C182.780334,62.055439 182.780334,53.835594 182.780334,43.870491 
	C179.353577,45.475559 175.097107,46.455185 175.032715,47.659081 
	C174.494324,57.722466 174.726791,67.827087 174.726791,77.950912 
	C181.991913,77.950912 188.547501,77.950912 195.543365,77.950912 
	C195.543365,76.307793 195.543365,75.010452 195.497009,72.832031 
M537.807312,78.119972 
	C538.112427,77.750702 538.680542,77.384048 538.684265,77.011795 
	C538.781860,67.213203 538.917725,57.411839 538.695923,47.618896 
	C538.677124,46.791378 536.160400,45.331070 534.870789,45.400539 
	C533.344482,45.482758 530.625427,46.868801 530.598572,47.755604 
	C530.293579,57.822048 530.405029,67.901108 530.405029,78.356796 
	C533.076843,78.356796 535.038940,78.356796 537.807312,78.119972 
z"/>
<path fill="#001173" opacity="1.000000" stroke="none" 
	d="
M69.824417,26.327511 
	C70.243973,36.886326 70.243973,47.181831 70.243973,57.813469 
	C59.690376,57.813469 49.141933,57.813469 38.308266,57.813469 
	C38.308266,47.462502 38.308266,37.064598 38.308266,26.064205 
	C48.611240,26.064205 59.008049,26.064205 69.824417,26.327511 
z"/>
<path fill="#001173" opacity="1.000000" stroke="none" 
	d="
M110.424042,84.995682 
	C110.424072,89.475121 110.424072,93.455078 110.424072,97.716454 
	C99.653397,97.716454 89.098663,97.716454 78.284149,97.716454 
	C78.284149,87.269768 78.284149,76.881645 78.284149,66.171852 
	C88.819595,66.171852 99.343323,66.171852 110.424004,66.171852 
	C110.424004,72.321915 110.424004,78.409058 110.424042,84.995682 
z"/>
<path fill="#504F4F" opacity="1.000000" stroke="none" 
	d="
M244.594879,70.191681 
	C242.871979,69.056091 241.356186,68.267494 239.004364,67.043930 
	C239.004364,71.370628 239.004364,74.472099 239.004364,77.932533 
	C236.189011,77.932533 233.801285,77.932533 231.110931,77.932533 
	C231.110931,67.290657 231.110931,56.697796 231.110931,44.994530 
	C237.440109,45.403126 243.816650,45.059032 249.819748,46.394104 
	C257.281891,48.053665 259.681458,58.629410 254.424164,64.260391 
	C253.645462,65.094437 252.724243,65.795456 251.814819,66.606308 
	C253.627991,70.267715 255.373795,73.793098 257.150970,77.381851 
	C249.185196,79.579498 248.940201,79.437096 244.594879,70.191681 
M243.298126,52.697575 
	C241.906876,52.811893 240.515610,52.926212 239.384644,53.019146 
	C239.384644,55.934124 239.384644,58.317379 239.384644,60.918411 
	C243.114090,60.341568 247.614319,62.575539 248.940216,57.490128 
	C249.823181,54.103569 247.220596,52.899025 243.298126,52.697575 
z"/>
<path fill="#565555" opacity="1.000000" stroke="none" 
	d="
M407.044250,65.974258 
	C407.044159,60.158657 407.213806,54.830219 406.981171,49.519402 
	C406.838104,46.253216 407.934326,45.146770 411.213623,45.159622 
	C414.319336,45.171787 415.982605,45.882301 415.620270,49.324257 
	C415.470642,50.746033 415.721039,52.209923 417.011383,54.621235 
	C419.260986,52.056019 421.102570,48.831059 423.877350,47.115032 
	C426.540802,45.467823 430.171539,45.384666 433.377197,44.614193 
	C433.645386,45.110435 433.913544,45.606678 434.181732,46.102924 
	C430.768921,49.961620 427.356110,53.820320 423.650604,58.009941 
	C427.524719,64.410049 431.450348,70.895355 435.420105,77.453468 
	C427.791107,79.688301 426.657959,79.220520 422.873688,72.799576 
	C421.082733,69.760834 419.173828,66.791618 417.318359,63.790905 
	C416.867676,63.913254 416.417023,64.035599 415.966339,64.157951 
	C415.966339,68.649544 415.966339,73.141129 415.966339,78.009384 
	C412.690887,78.009384 410.145569,78.009384 407.044189,78.009384 
	C407.044189,74.021324 407.044189,70.245087 407.044250,65.974258 
z"/>
<path fill="#535252" opacity="1.000000" stroke="none" 
	d="
M389.231018,51.831940 
	C387.914703,52.707569 387.002533,53.518890 386.090363,54.330223 
	C386.935425,55.236935 387.618378,56.490517 388.659760,56.977268 
	C390.752594,57.955452 393.089874,58.395588 395.238220,59.273342 
	C399.450500,60.994385 402.150513,63.944546 401.845520,68.775146 
	C401.534576,73.699638 398.677399,76.692589 394.051270,77.981773 
	C388.045563,79.655411 382.515564,78.216759 377.391113,74.975632 
	C372.976685,72.183601 376.766022,69.249687 377.055420,66.680313 
	C380.953308,68.253029 384.597229,70.031609 388.439392,71.091568 
	C389.641266,71.423134 391.377686,69.817139 392.869415,69.098068 
	C391.793060,67.995682 390.892914,66.566689 389.598541,65.868507 
	C387.720673,64.855598 385.513184,64.476952 383.526306,63.638287 
	C379.345306,61.873505 376.649719,58.988297 377.035431,54.101822 
	C377.392456,49.578072 380.728180,45.810455 385.747589,45.198471 
	C388.965332,44.806149 392.452637,44.985645 395.578674,45.814999 
	C402.462097,47.641201 402.649536,48.495090 399.452515,54.816570 
	C396.154358,53.792278 392.894775,52.779957 389.231018,51.831940 
z"/>
<path fill="#545353" opacity="1.000000" stroke="none" 
	d="
M492.862915,71.657684 
	C488.280945,77.615013 482.243652,79.652138 476.023865,77.615730 
	C470.450745,75.791054 467.136505,70.748703 467.007538,63.561596 
	C466.900513,57.596928 466.985626,51.628815 466.985626,45.287704 
	C469.639191,45.287704 472.025360,45.287704 475.189819,45.287704 
	C475.189819,50.134644 475.149506,55.045719 475.209534,59.955570 
	C475.233765,61.935745 474.847565,64.307320 475.777618,65.794395 
	C477.001038,67.750587 479.406403,70.296089 481.177429,70.202499 
	C482.901062,70.111412 485.637665,67.155075 485.877625,65.204437 
	C486.562958,59.632172 486.194214,53.931480 486.268280,48.281677 
	C486.280914,47.318439 486.432404,46.357014 486.540680,45.163857 
	C489.198242,45.163857 491.625305,45.163857 495.459015,45.163857 
	C494.639801,54.033493 493.841461,62.677086 492.862915,71.657684 
z"/>
<path fill="#515050" opacity="1.000000" stroke="none" 
	d="
M200.823730,52.102757 
	C200.823608,49.662666 200.823608,47.708981 200.823608,45.462406 
	C209.153671,45.462406 216.899277,45.462406 225.003479,45.462406 
	C225.003479,47.622417 225.003479,49.839722 225.003479,52.520477 
	C219.706207,52.520477 214.625381,52.520477 209.298141,52.520477 
	C209.166077,54.396866 209.064941,55.834000 208.928207,57.776890 
	C212.384521,57.776890 215.627869,57.776890 219.409271,57.776890 
	C219.529785,60.294769 219.628204,62.350864 219.753006,64.958389 
	C216.157455,64.958389 212.923294,64.958389 209.342819,64.958389 
	C209.191879,67.036705 209.077209,68.615524 208.917450,70.815216 
	C214.388260,70.815216 219.594345,70.815216 225.069305,70.815216 
	C225.069305,73.498276 225.069305,75.579254 225.069305,77.870979 
	C217.029144,77.870979 209.272766,77.870979 200.823837,77.870979 
	C200.823837,69.396805 200.823837,60.992985 200.823730,52.102757 
z"/>
<path fill="#515050" opacity="1.000000" stroke="none" 
	d="
M332.448608,58.142647 
	C333.221405,60.281033 333.570679,62.301559 334.035767,64.991982 
	C330.053162,64.991982 326.818390,64.991982 323.279785,64.991982 
	C323.162170,67.129250 323.074677,68.719414 322.958313,70.833817 
	C328.326965,70.833817 333.415619,70.833817 338.831909,70.833817 
	C338.831909,73.381416 338.831909,75.431633 338.831909,77.784790 
	C331.011780,77.784790 323.260437,77.784790 315.164612,77.784790 
	C315.164612,67.078606 315.164612,56.381027 315.164612,45.416809 
	C323.152283,45.416809 330.912354,45.416809 339.016388,45.416809 
	C339.016388,47.533760 339.016388,49.628227 339.016388,52.396919 
	C333.892487,52.396919 328.685547,52.396919 323.255920,52.396919 
	C323.255920,54.484509 323.255920,55.919094 323.255920,58.024780 
	C326.152863,58.024780 329.088959,58.024780 332.448608,58.142647 
z"/>
<path fill="#515050" opacity="1.000000" stroke="none" 
	d="
M370.134705,72.894882 
	C371.139099,74.609177 371.966949,76.000854 372.836090,77.461960 
	C365.000580,79.438072 364.247284,79.125725 360.300018,72.682953 
	C358.451843,69.666313 356.549042,66.683144 354.670990,63.684799 
	C354.202423,63.799915 353.733887,63.915035 353.265350,64.030151 
	C353.265350,68.537613 353.265350,73.045067 353.265350,77.914734 
	C350.116455,77.914734 347.744598,77.914734 344.723602,77.914734 
	C344.723602,67.786667 344.492615,57.685932 345.030457,47.626308 
	C345.094147,46.435432 349.367065,45.469612 352.808472,43.883385 
	C352.808472,48.463856 352.808472,51.320904 352.808472,54.965736 
	C358.879822,50.544495 362.214325,42.323338 371.751648,46.192699 
	C368.124390,50.151268 364.713928,53.873245 360.981232,57.946896 
	C363.935394,62.759880 366.946777,67.666077 370.134705,72.894882 
z"/>
<path fill="#525151" opacity="1.000000" stroke="none" 
	d="
M513.983032,45.268856 
	C517.770813,45.268955 521.068237,45.268955 525.031067,45.268955 
	C524.905884,56.352283 515.307251,61.819801 511.760895,70.854637 
	C516.023315,70.854637 520.237122,70.854637 524.773193,70.854637 
	C524.773193,73.510170 524.773193,75.721397 524.773193,78.090607 
	C516.577454,78.090607 508.491241,78.090607 499.790741,78.090607 
	C500.029602,67.408760 509.570526,62.081223 513.032227,53.013439 
	C508.997162,53.013439 505.124603,53.013439 501.417633,53.013439 
	C499.424835,46.067486 499.931030,45.292889 506.004913,45.269749 
	C508.500854,45.260239 510.996826,45.268551 513.983032,45.268856 
z"/>
<path fill="#515050" opacity="1.000000" stroke="none" 
	d="
M264.566681,72.656754 
	C267.858795,64.250496 270.842377,56.150509 274.217651,48.217148 
	C274.791412,46.868568 277.007568,45.535431 278.533234,45.452595 
	C280.335663,45.354733 283.358032,46.141769 283.875458,47.374580 
	C288.028107,57.268700 291.714020,67.358704 295.766449,77.974968 
	C291.478180,78.007088 287.265442,80.548180 285.506805,74.586594 
	C285.297974,73.878777 283.740906,73.207375 282.772308,73.151482 
	C279.633759,72.970413 276.478241,73.083847 273.089844,73.083847 
	C271.880096,79.331764 267.597565,78.719604 262.703430,77.855995 
	C263.320740,76.085701 263.855438,74.552429 264.566681,72.656754 
M276.304932,63.026352 
	C275.368896,70.378014 280.269287,65.054543 283.196594,67.215355 
	C281.635864,62.616825 280.590790,59.537613 279.545715,56.458401 
	C279.207947,56.540798 278.870178,56.623192 278.532410,56.705589 
	C277.907166,58.571514 277.281891,60.437443 276.304932,63.026352 
z"/>
<path fill="#535252" opacity="1.000000" stroke="none" 
	d="
M554.598022,51.387344 
	C555.967834,55.712315 557.168579,59.674400 558.411499,63.623238 
	C558.484009,63.853710 558.897156,63.976959 559.682129,64.510704 
	C560.999146,60.181301 562.270569,56.018154 563.531799,51.851940 
	C565.680420,44.754696 565.677734,44.753887 573.893921,45.740231 
	C572.329651,50.489243 570.807373,55.129978 569.272095,59.766399 
	C567.706726,64.493721 566.004089,69.180244 564.601074,73.955009 
	C563.709778,76.988121 562.497131,78.512192 558.831055,78.547134 
	C554.971375,78.583916 554.155396,76.589256 553.241516,73.736961 
	C550.272522,64.471443 547.162964,55.251011 544.094482,45.973774 
	C552.207642,44.296833 552.415833,44.404339 554.598022,51.387344 
z"/>
<path fill="#535252" opacity="1.000000" stroke="none" 
	d="
M150.045898,51.890732 
	C151.483429,56.515049 152.824829,60.748894 154.508224,66.062172 
	C156.245682,60.541981 157.725510,56.160404 158.999405,51.719753 
	C161.026367,44.654053 160.968307,44.637394 169.331711,45.788765 
	C168.056259,49.573467 166.812775,53.259552 165.571869,56.946507 
	C163.451996,63.244907 161.482666,69.601524 159.085175,75.792358 
	C158.623215,76.985222 156.493942,78.192291 155.119034,78.209488 
	C153.280685,78.232468 150.205475,77.555161 149.773346,76.393196 
	C146.087570,66.482079 142.880463,56.392941 139.532486,46.364483 
	C146.710968,43.924969 147.621719,44.407391 150.045898,51.890732 
z"/>
<path fill="#0C1C79" opacity="1.000000" stroke="none" 
	d="
M46.043522,65.822639 
	C54.346382,65.822632 62.156364,65.822632 70.231514,65.822632 
	C70.231514,76.571785 70.231514,86.995262 70.231514,97.721451 
	C59.606773,97.721451 49.062256,97.721451 38.258881,97.721451 
	C38.258881,87.264816 38.258881,76.860458 38.258881,65.822647 
	C40.693802,65.822647 43.122223,65.822647 46.043522,65.822639 
M65.377953,93.221870 
	C65.377953,85.676239 65.377953,78.130608 65.377953,70.444008 
	C57.974998,70.444008 50.560818,70.444008 43.058762,70.444008 
	C43.058762,78.212425 43.058762,85.737198 43.058762,93.416931 
	C50.442215,93.416931 57.424915,93.416931 65.377953,93.221870 
z"/>
<path fill="#0C1C79" opacity="1.000000" stroke="none" 
	d="
M110.497986,46.966843 
	C110.498146,50.923489 110.498146,54.385906 110.498146,58.010612 
	C99.535843,58.010612 89.080833,58.010612 78.313828,58.010612 
	C78.313828,47.535267 78.313828,37.119732 78.313828,26.340008 
	C88.701393,26.340008 99.261879,26.340008 110.497833,26.340008 
	C110.497833,32.953178 110.497833,39.712898 110.497986,46.966843 
M105.949593,33.600174 
	C105.255707,32.588539 104.589340,30.721521 103.863663,30.698174 
	C96.944580,30.475555 90.015457,30.565268 82.918869,30.565268 
	C82.918869,38.550686 82.918869,45.947929 82.918869,53.420162 
	C90.718651,53.420162 98.251862,53.420162 105.950356,53.420162 
	C105.950356,46.895081 105.950356,40.742191 105.949593,33.600174 
z"/>
<path fill="#4F4E4E" opacity="1.000000" stroke="none" 
	d="
M461.755005,72.226105 
	C462.523132,76.838989 461.247284,78.781677 456.567749,78.385612 
	C451.634979,77.968132 446.639496,78.292046 440.927490,78.292046 
	C440.927490,72.635384 440.927490,67.228767 440.927490,61.822159 
	C440.927490,56.540524 440.927490,51.258892 440.927490,45.632408 
	C443.717194,45.632408 446.099091,45.632408 448.898315,45.632408 
	C448.898315,53.893562 448.898315,61.962566 448.898315,70.200073 
	C453.419800,70.756622 457.556946,71.265869 461.755005,72.226105 
z"/>
<path fill="#504F4F" opacity="1.000000" stroke="none" 
	d="
M195.520187,73.272568 
	C195.543365,75.010452 195.543365,76.307793 195.543365,77.950912 
	C188.547501,77.950912 181.991913,77.950912 174.726791,77.950912 
	C174.726791,67.827087 174.494324,57.722466 175.032715,47.659081 
	C175.097107,46.455185 179.353577,45.475559 182.780334,43.870491 
	C182.780334,53.835594 182.780334,62.055439 182.780334,70.827271 
	C186.132950,70.827271 188.933517,70.617966 191.678558,70.917618 
	C193.005219,71.062431 194.227478,72.163780 195.520187,73.272568 
z"/>
<path fill="#5C5B5B" opacity="1.000000" stroke="none" 
	d="
M537.404175,78.238388 
	C535.038940,78.356796 533.076843,78.356796 530.405029,78.356796 
	C530.405029,67.901108 530.293579,57.822048 530.598572,47.755604 
	C530.625427,46.868801 533.344482,45.482758 534.870789,45.400539 
	C536.160400,45.331070 538.677124,46.791378 538.695923,47.618896 
	C538.917725,57.411839 538.781860,67.213203 538.684265,77.011795 
	C538.680542,77.384048 538.112427,77.750702 537.404175,78.238388 
z"/>
<path fill="#EFEFEF" opacity="1.000000" stroke="none" 
	d="
M243.750015,52.704025 
	C247.220596,52.899025 249.823181,54.103569 248.940216,57.490128 
	C247.614319,62.575539 243.114090,60.341568 239.384644,60.918411 
	C239.384644,58.317379 239.384644,55.934124 239.384644,53.019146 
	C240.515610,52.926212 241.906876,52.811893 243.750015,52.704025 
z"/>
<path fill="#DFDFDF" opacity="1.000000" stroke="none" 
	d="
M276.480774,62.664860 
	C277.281891,60.437443 277.907166,58.571514 278.532410,56.705589 
	C278.870178,56.623192 279.207947,56.540798 279.545715,56.458401 
	C280.590790,59.537613 281.635864,62.616825 283.196594,67.215355 
	C280.269287,65.054543 275.368896,70.378014 276.480774,62.664860 
z"/>
<path fill="#F3F4F5" opacity="1.000000" stroke="none" 
	d="
M64.892784,93.319397 
	C57.424915,93.416931 50.442215,93.416931 43.058762,93.416931 
	C43.058762,85.737198 43.058762,78.212425 43.058762,70.444008 
	C50.560818,70.444008 57.974998,70.444008 65.377953,70.444008 
	C65.377953,78.130608 65.377953,85.676239 64.892784,93.319397 
z"/>
<path fill="#F3F4F5" opacity="1.000000" stroke="none" 
	d="
M105.949974,34.094738 
	C105.950356,40.742191 105.950356,46.895081 105.950356,53.420162 
	C98.251862,53.420162 90.718651,53.420162 82.918869,53.420162 
	C82.918869,45.947929 82.918869,38.550686 82.918869,30.565268 
	C90.015457,30.565268 96.944580,30.475555 103.863663,30.698174 
	C104.589340,30.721521 105.255707,32.588539 105.949974,34.094738 
z"/>
</svg>